<?xml version="1.0" encoding="UTF-8" standalone="no"?>
<svg
   viewBox="0 0 1260.6669 211.88686"
   version="1.1"
   id="svg1"
   sodipodi:docname="one-line-light.svg"
   width="1260.6669"
   height="211.88686"
   inkscape:version="1.4.2 (ebf0e94, 2025-05-08)"
   xmlns:inkscape="http://www.inkscape.org/namespaces/inkscape"
   xmlns:sodipodi="http://sodipodi.sourceforge.net/DTD/sodipodi-0.dtd"
   xmlns="http://www.w3.org/2000/svg"
   xmlns:svg="http://www.w3.org/2000/svg">
  <sodipodi:namedview
     id="namedview1"
     pagecolor="#ffffff"
     bordercolor="#000000"
     borderopacity="0.25"
     inkscape:showpageshadow="2"
     inkscape:pageopacity="0.0"
     inkscape:pagecheckerboard="0"
     inkscape:deskcolor="#d1d1d1"
     inkscape:zoom="1.3808554"
     inkscape:cx="620.99189"
     inkscape:cy="185.39233"
     inkscape:window-width="1920"
     inkscape:window-height="1012"
     inkscape:window-x="0"
     inkscape:window-y="40"
     inkscape:window-maximized="1"
     inkscape:current-layer="svg1" />
  <defs
     id="defs1">
    <style
       id="style1">.cls-1{fill:#fefefe;fill-rule:evenodd;}.cls-2{font-size:95.89px;fill:#fff;font-family:Roboto-Bold, Roboto;font-weight:700;}.cls-3{letter-spacing:-0.01em;}</style>
  </defs>
  <g
     id="Layer_2"
     data-name="Layer 2"
     transform="translate(-20.4,0.00664131)"
     style="fill:#2b2b2b;fill-opacity:1">
    <g
       id="Layer_1-2"
       data-name="Layer 1"
       style="fill:#2b2b2b;fill-opacity:1">
      <path
         id="P"
         class="cls-1"
         d="m 1280.88,77.38 a 0.84,0.84 0 0 1 -0.38,-0.84 59.84,59.84 0 0 0 -0.55,-10.7 11.91,11.91 0 0 1 -0.56,-3.91 23.93,23.93 0 0 0 -0.28,-3.17 q -1,-3.82 -2,-7.64 a 1.3,1.3 0 0 1 -0.37,-1.11 c -0.16,-0.81 -0.31,-1.61 -0.47,-2.42 q -1.82,-4.94 -3.91,-9.69 A 48.5,48.5 0 0 0 1249,14.81 q -4.72,-2 -9.5,-3.91 -4.74,-1.43 -9.49,-2.61 c -2.72,-0.63 -5.45,-1.18 -8.2,-1.67 a 144.36,144.36 0 0 0 -14.52,-1.68 l -6,-0.37 A 12.75,12.75 0 0 1 1198,4.2 h -90.88 V 86 q -0.06,61.46 0.09,122.91 35.68,0.34 71.42,0 v -43.44 h 15.45 q 7,-0.09 14,-0.56 a 9.79,9.79 0 0 1 3,-0.37 179.38,179.38 0 0 0 21.23,-3.91 105.47,105.47 0 0 0 16.69,-6.43 54.51,54.51 0 0 0 17.6,-14.24 70.73,70.73 0 0 0 10.43,-22.54 q 0.84,-4 1.86,-8 0.87,-5.8 1.58,-11.54 0,-3.69 0.38,-7.27 a 1.31,1.31 0 0 0 0.18,-0.93 q 0.12,-6.16 -0.15,-12.3 z m -71.79,10.8 a 31.17,31.17 0 0 1 -0.66,3.73 27.76,27.76 0 0 1 -2.23,7.45 14.18,14.18 0 0 1 -6.15,6.79 33.42,33.42 0 0 1 -11.36,3.08 c -3.32,0.18 -6.67,0.25 -10,0.18 q -0.09,-24.52 0.18,-49 a 70.37,70.37 0 0 1 10.06,0 28.3,28.3 0 0 1 13.59,3.63 16.38,16.38 0 0 1 5.78,10.33 9,9 0 0 1 0.65,3 97.32,97.32 0 0 1 0.14,10.81 z"
         style="fill:#2b2b2b;fill-opacity:1" />
      <path
         id="G"
         class="cls-1"
         d="m 988,135.49 a 57.67,57.67 0 0 0 3,7.63 14.69,14.69 0 0 0 2.7,3.54 17.34,17.34 0 0 0 10.8,5.87 48.43,48.43 0 0 0 17.14,0.46 c 0.82,0.2 1.2,-0.11 1.12,-0.93 v -13.59 l -8.85,-0.38 q -0.51,-24.95 -0.47,-49.91 A 17.22,17.22 0 0 0 1017,88 h 69.28 a 12.23,12.23 0 0 0 3,0.18 V 202.9 q -4.15,0.57 -8.2,1.3 -11,1.73 -22,3.17 a 10.11,10.11 0 0 0 -3,0.37 q -21.78,3 -43.76,4 a 194.46,194.46 0 0 1 -30.73,-1.59 7.5,7.5 0 0 0 -2.61,-0.37 95.4,95.4 0 0 1 -26.44,-7.54 l -6.89,-3.82 q -4.35,-3.13 -8.38,-6.7 A 77.41,77.41 0 0 1 920.6,164.34 q -1.82,-5.58 -3.26,-11.17 c -0.72,-3.55 -1.34,-7.08 -1.86,-10.62 q -0.75,-7.11 -1.49,-14.15 c 0,-1.74 0,-3.48 -0.19,-5.22 a 46.71,46.71 0 0 0 -0.37,-6 V 94.33 q 0.6,-7.5 1.12,-15.08 c 0.15,-0.6 0.27,-1.22 0.37,-1.87 a 20.36,20.36 0 0 0 0.56,-4.09 101.69,101.69 0 0 1 12,-38.93 57.94,57.94 0 0 1 23.56,-22.81 103,103 0 0 1 31.47,-9.68 212.09,212.09 0 0 1 29.83,-1.87 396.15,396.15 0 0 1 60.15,6.89 q 7.68,1.76 15.27,3.63 v 53.64 h -2 q -23.68,-2.41 -47.49,-3.35 a 201.82,201.82 0 0 0 -31.1,0.09 31.91,31.91 0 0 0 -15.64,5.4 15.87,15.87 0 0 0 -3.63,6.43 50.68,50.68 0 0 0 -1.49,7.63 c -0.2,3.54 -0.41,7.08 -0.65,10.62 a 90.25,90.25 0 0 0 -0.38,10.43 68.87,68.87 0 0 0 0,9.31 q 0,3.54 0.1,7.07 a 8.6,8.6 0 0 0 0.28,1.87 88.26,88.26 0 0 0 2.24,15.83"
         style="fill:#2b2b2b;fill-opacity:1" />
      <path
         id="K"
         class="cls-1"
         d="m 731.32,4 h 70.39 a 0.85,0.85 0 0 1 0.75,0.19 v 72.45 q 5.91,0.09 11.73,-0.19 a 1.08,1.08 0 0 0 0.37,-0.74 q 3,-9.09 5.78,-18.25 5.22,-16.14 10.24,-32.41 3.21,-10.52 6.7,-21 a 0.92,0.92 0 0 1 0.56,-0.09 h 67.6 a 14,14 0 0 1 2.24,0.09 0.76,0.76 0 0 1 0.18,0.37 q -6.43,19.34 -12.86,38.7 -3.79,11 -7.26,22.16 a 61.33,61.33 0 0 0 -3,8.75 q -2.35,6.52 -4.28,13.22 -2.85,7.92 -5.22,16 4.11,13 8.76,25.88 5,15.16 10.05,30.17 2.31,6.39 4.47,12.85 3.54,10.35 7.08,20.67 2.7,8 5.4,16 -35.76,0 -71.51,-0.09 c -1.2,-2.67 -2.25,-5.37 -3.17,-8.1 q -4,-11.65 -8.38,-23.1 a 83.29,83.29 0 0 0 -3,-8.38 11.76,11.76 0 0 0 -1.12,-3.16 q -2.67,-8.11 -5.77,-16 c -1,-2.89 -2,-5.75 -3.16,-8.56 a 0.83,0.83 0 0 0 -0.19,-0.66 q -6.15,-0.14 -12.29,-0.09 v 68 a 1.29,1.29 0 0 1 -0.93,0.19 h -70.16 q -0.18,-16.8 -0.37,-33.52 V 4.2 Z"
         style="fill:#2b2b2b;fill-opacity:1" />
      <path
         id="A"
         class="cls-1"
         d="m 703,202.67 c -0.42,-4.18 -0.66,-8.36 -0.7,-12.57 a 4.51,4.51 0 0 1 -0.35,-1.39 q -0.31,-41.19 -0.23,-82.37 a 29.08,29.08 0 0 0 -0.24,-3.73 c -0.36,-3 -0.83,-6 -1.39,-9.07 A 127.62,127.62 0 0 0 695,77 q -1.59,-3.06 -3.38,-6 A 49.83,49.83 0 0 0 677.5,55.84 60.44,60.44 0 0 0 662.14,47.93 98.14,98.14 0 0 0 641.9,43.74 h -0.24 l -8.14,-0.23 q -7,0 -14,0.23 c -1.71,0 -3.42,0.11 -5.12,0.24 a 10.09,10.09 0 0 1 -3.49,0.46 80.14,80.14 0 0 0 -12.33,1.86 q -6.21,1.35 -12.33,3 a 116.3,116.3 0 0 0 -18.39,7.33 1.2,1.2 0 0 0 -0.69,1.05 q 4.32,16.12 9.07,32.11 a 16.36,16.36 0 0 1 4.65,-2.33 79,79 0 0 1 24.44,-7.91 27,27 0 0 1 5.81,-0.93 13.87,13.87 0 0 1 4.19,-0.47 48.27,48.27 0 0 1 27,4.54 21,21 0 0 1 6.17,6.63 13.05,13.05 0 0 1 1.74,8.38 4.82,4.82 0 0 1 0.24,2.09 H 647 q -6.81,0.38 -13.73,0.47 a 47,47 0 0 0 -6.28,0.46 9.54,9.54 0 0 1 -3.26,0.47 105.05,105.05 0 0 0 -41.42,12.91 q -28.6,17.9 -26.74,51.8 c 0.38,2 0.69,4 0.93,6 a 54.31,54.31 0 0 0 4.19,12.57 42.69,42.69 0 0 0 3.72,6.28 c 1.07,1.58 2.19,3.14 3.38,4.65 a 53.7,53.7 0 0 0 22.68,14.2 c 2.37,0.47 4.7,1 7,1.63 a 159.26,159.26 0 0 0 16.06,0.46 35.21,35.21 0 0 1 4.65,-0.46 c 2.59,-0.66 5.22,-1.2 7.91,-1.63 a 54.43,54.43 0 0 0 28.16,-17.34 0.77,0.77 0 0 1 1,-0.11 q 1.2,8.09 2.9,16.05 22.82,0.34 45.61,0.23 a 1.41,1.41 0 0 0 0.23,-0.81 25.84,25.84 0 0 1 -0.99,-4.95 z m -54.92,-38.86 a 45.05,45.05 0 0 0 -3.49,4.19 c -0.86,0.74 -1.75,1.44 -2.67,2.09 a 26.56,26.56 0 0 1 -18.17,5.91 38.53,38.53 0 0 1 -7.22,-1.39 6,6 0 0 1 -1.39,-0.82 15.79,15.79 0 0 1 -8.61,-10.23 0.54,0.54 0 0 1 -0.35,-0.24 c -0.26,-1.32 -0.53,-2.64 -0.81,-4 a 10.89,10.89 0 0 1 -0.24,-2.33 14.69,14.69 0 0 1 0.47,-3.95 16.84,16.84 0 0 1 1.86,-5.59 25.28,25.28 0 0 1 2.68,-4.42 30.72,30.72 0 0 1 15,-8.38 35.54,35.54 0 0 1 10.71,-2.09 9.21,9.21 0 0 0 3.25,-0.47 h 0.47 c 2.13,-0.22 4.3,-0.38 6.52,-0.46 h 6 q 0.11,9 -0.24,17.92 a 22.54,22.54 0 0 1 -3.79,14.26 z"
         style="fill:#2b2b2b;fill-opacity:1" />
      <path
         id="T"
         class="cls-1"
         d="m 514.39,0 h 0.93 v 46.3 h 36.53 a 0.21,0.21 0 0 1 0.23,0.24 q 0.12,18.63 -0.23,37.23 h -36.53 a 0.64,0.64 0 0 0 0.23,0.69 q -0.12,31.56 0.23,63.06 a 30,30 0 0 0 4.77,17 11.86,11.86 0 0 0 5.24,4 25.51,25.51 0 0 0 13.26,1.75 c 2.55,-0.27 5.11,-0.47 7.68,-0.58 a 14,14 0 0 0 3.49,-0.7 h 0.23 v 0.93 q 0.31,19 0.24,37.93 a 50.31,50.31 0 0 0 -6.52,1.86 149.87,149.87 0 0 1 -36.76,1.74 58.53,58.53 0 0 1 -24.41,-10.3 34.19,34.19 0 0 1 -4.18,-4.07 53.17,53.17 0 0 1 -10,-19.54 153.63,153.63 0 0 1 -3.26,-24.2 V 94 c -0.06,-3.42 0,-6.83 0.24,-10.23 Q 455.15,83.41 444.39,83.53 V 46.3 h 21.41 a 21.55,21.55 0 0 0 -0.24,-4.42 v -0.7 q -0.11,-15 0.24,-30 16.25,-4 32.57,-7.68 5.32,-1 10.47,-2.33 2.73,-0.67 5.55,-1.17 z"
         style="fill:#2b2b2b;fill-opacity:1" />
      <path
         id="E"
         class="cls-1"
         d="m 437.83,98.42 a 2.57,2.57 0 0 1 -0.46,-1.62 70.33,70.33 0 0 0 -5.59,-16.06 q -2.52,-4.45 -5.23,-8.84 A 68.24,68.24 0 0 0 406.42,52.59 72.81,72.81 0 0 0 397.81,48.4 c -1.24,-0.52 -2.48,-1 -3.72,-1.4 a 80.71,80.71 0 0 0 -21.64,-3.72 102.22,102.22 0 0 0 -26.06,2.21 q -3,0.81 -6.05,1.74 A 63.55,63.55 0 0 0 319.86,57.47 19.19,19.19 0 0 1 316.61,60 Q 312.2,64 308,68.18 L 303.34,74 a 89.16,89.16 0 0 0 -16.28,41 12.21,12.21 0 0 1 -0.47,3.49 11.37,11.37 0 0 0 -0.35,2.32 c -0.12,4.34 -0.15,8.69 -0.12,13 v 1.4 a 33.09,33.09 0 0 1 0.47,5.58 69.88,69.88 0 0 0 1.05,7.91 104.76,104.76 0 0 0 6.16,20.25 q 2.08,4.15 4.54,8.14 a 73.18,73.18 0 0 0 19.43,20.25 q 5.4,3.33 11.17,6.16 a 106.41,106.41 0 0 0 35.13,8.26 q 14.56,0.25 29.09,-0.7 a 209.22,209.22 0 0 0 32.57,-7 8.76,8.76 0 0 1 3,-0.93 20.42,20.42 0 0 1 2.56,-1.16 7.8,7.8 0 0 0 0.23,-1.28 12,12 0 0 1 -0.7,-4.07 q -2.09,-10.11 -4.07,-20.25 -0.82,-4.63 -1.28,-9.3 a 151,151 0 0 1 -22.34,5.12 c -2.05,0.41 -4.14,0.75 -6.28,1 -3.26,0.18 -6.52,0.38 -9.77,0.58 q -3.09,0.24 -6.28,0.24 a 64.76,64.76 0 0 1 -8.85,-0.47 16.05,16.05 0 0 1 -4.18,-0.46 l -8.15,-2 a 32.42,32.42 0 0 1 -6.75,-2.68 48.14,48.14 0 0 1 -7.67,-4.53 19.63,19.63 0 0 1 -4,-4.08 22,22 0 0 1 -5.12,-8.61 57.88,57.88 0 0 1 -1.86,-7 0.64,0.64 0 0 1 -0.23,-0.69 H 439 a 0.56,0.56 0 0 0 0.35,-0.24 q 0.81,-7.54 1.28,-15.12 a 113.34,113.34 0 0 0 -2.8,-29.71 z m -44.44,10.71 h -59.33 a 3,3 0 0 1 0.23,-1.63 40.38,40.38 0 0 1 12.33,-24.08 32,32 0 0 1 7,-4.08 17.37,17.37 0 0 1 7.45,-2.09 14.94,14.94 0 0 1 4.3,-0.46 27,27 0 0 1 16.63,5.35 29.36,29.36 0 0 1 9.88,15.86 44.74,44.74 0 0 1 1.05,5.35 30.61,30.61 0 0 1 0.46,5.78 z"
         style="fill:#2b2b2b;fill-opacity:1" />
      <path
         id="M"
         class="cls-1"
         d="m 130,44.68 q 2.92,0.75 5.82,1.62 a 45,45 0 0 1 24.32,21.18 13.18,13.18 0 0 1 1.28,3 0.71,0.71 0 0 0 0.69,0.24 9.33,9.33 0 0 1 0.82,-1.87 77,77 0 0 1 20.13,-18.26 83.24,83.24 0 0 1 9.3,-4.31 14.14,14.14 0 0 1 3.26,-0.93 95.19,95.19 0 0 1 14,-2.09 70.49,70.49 0 0 1 20.25,2.09 A 62.32,62.32 0 0 1 241,50.26 52,52 0 0 1 259.25,70 c 1.22,2.7 2.43,5.42 3.61,8.14 a 111.56,111.56 0 0 1 3.25,12.86 10.65,10.65 0 0 0 0.7,3.26 20,20 0 0 0 0.23,2.32 9.5,9.5 0 0 0 0.47,3.26 39.76,39.76 0 0 1 0.47,7 v 101.41 h -49.1 c -0.16,-0.46 -0.31,-0.93 -0.47,-1.39 v -72.6 a 155.31,155.31 0 0 0 0,-17 v -0.93 a 96.62,96.62 0 0 0 -1,-11.63 c -0.44,-1.6 -0.94,-3.15 -1.52,-4.66 a 10.89,10.89 0 0 0 -1.16,-2.79 23,23 0 0 0 -3.95,-6.51 18.78,18.78 0 0 0 -11.87,-6.4 65.24,65.24 0 0 0 -7.91,0 10.48,10.48 0 0 0 -3.49,1 20.68,20.68 0 0 0 -9.08,6.29 15.14,15.14 0 0 0 -3.99,5.37 16.1,16.1 0 0 0 -2.1,4 30.82,30.82 0 0 0 -1.16,4.66 21.44,21.44 0 0 0 -0.7,6.75 v 96.09 h -49.56 c -0.11,-1.78 -0.19,-3.56 -0.23,-5.35 q 0.06,-45.6 -0.12,-91.21 A 39.26,39.26 0 0 0 115.45,94 Q 109.15,83.81 97.07,84.23 A 21.09,21.09 0 0 0 82.76,89 a 33.09,33.09 0 0 0 -10.35,15.94 28.62,28.62 0 0 0 -0.59,4.42 22.44,22.44 0 0 0 -0.23,4.42 v 93.08 a 2.88,2.88 0 0 1 -0.23,1.51 q -18.15,0.16 -36.3,0.11 H 21.8 c 0.07,-3.84 0,-7.64 -0.24,-11.4 q 0.11,-57.93 -0.23,-115.87 0.11,-6.3 -0.23,-12.57 0,-9 -0.7,-17.92 v -4.18 h 42.81 a 0.49,0.49 0 0 1 0.35,0.23 q 0.82,11 2.21,21.87 a 0.71,0.71 0 0 0 0.7,-0.23 58.2,58.2 0 0 1 25.6,-20.94 49.75,49.75 0 0 1 6.28,-2.1 10.69,10.69 0 0 0 2.09,-0.46 74.43,74.43 0 0 1 29.56,-0.23 z"
         style="fill:#2b2b2b;fill-opacity:1" />
    </g>
  </g>
</svg>
